<?xml version="1.0" standalone="no"?>
<!DOCTYPE svg PUBLIC "-//W3C//DTD SVG 20010904//EN"
 "http://www.w3.org/TR/2001/REC-SVG-20010904/DTD/svg10.dtd">
<svg version="1.0" xmlns="http://www.w3.org/2000/svg"
 width="260.000000pt" height="260.000000pt" viewBox="0 0 260.000000 260.000000"
 preserveAspectRatio="xMidYMid meet">
<metadata>
Created by potrace 1.11, written by Peter Selinger 2001-2013
</metadata>
<g transform="translate(0.000000,260.000000) scale(0.100000,-0.100000)"
fill="#000000" stroke="none">
<path d="M906 2432 c-4 -7 -719 -1936 -812 -2190 l-33 -92 362 2 361 3 56 185
56 185 399 3 400 2 54 -182 c30 -101 57 -186 61 -191 3 -4 171 -6 372 -5 l366
3 -423 1140 -423 1140 -395 3 c-218 1 -398 -1 -401 -6z m514 -992 c66 -217
120 -398 120 -402 0 -5 -111 -8 -246 -8 -193 0 -245 3 -242 13 3 6 58 191 124
409 65 219 120 395 121 390 2 -4 57 -185 123 -402z"/>
</g>
</svg>
